<svg width="111" height="111" viewBox="0 0 111 111" fill="none" xmlns="http://www.w3.org/2000/svg">
<g clip-path="url(#clip0_72_122)">
<rect x="2" y="109" width="107" height="107" rx="53.5" transform="rotate(-90 2 109)" fill="#F4FAFF"/>
<path d="M55.5 6.61831e-07C70.2195 8.37359e-07 84.3362 5.84731 94.7444 16.2556C105.153 26.6638 111 40.7805 111 55.5C111 70.2195 105.153 84.3362 94.7444 94.7444C84.3362 105.153 70.2195 111 55.5 111C40.7805 111 26.6638 105.153 16.2556 94.7444C5.84731 84.3362 4.86302e-07 70.2195 6.61831e-07 55.5C8.37359e-07 40.7805 5.84731 26.6638 16.2556 16.2556C26.6638 5.84731 40.7805 4.86302e-07 55.5 6.61831e-07ZM31.2188 52.0313C30.2988 52.0313 29.4165 52.3967 28.766 53.0472C28.1155 53.6977 27.75 54.58 27.75 55.5C27.75 56.42 28.1155 57.3023 28.766 57.9528C29.4165 58.6033 30.2988 58.9688 31.2188 58.9688L71.4077 58.9688L56.5129 73.8566C55.8615 74.508 55.4956 75.3914 55.4956 76.3125C55.4956 77.2336 55.8615 78.117 56.5129 78.7684C57.1642 79.4197 58.0476 79.7856 58.9688 79.7856C59.8899 79.7856 60.7733 79.4197 61.4246 78.7684L82.2371 57.9559C82.5602 57.6337 82.8164 57.2509 82.9913 56.8295C83.1662 56.408 83.2562 55.9563 83.2562 55.5C83.2562 55.0437 83.1662 54.592 82.9913 54.1705C82.8164 53.7491 82.5602 53.3663 82.2371 53.0441L61.4246 32.2316C60.7733 31.5803 59.8899 31.2144 58.9688 31.2144C58.0476 31.2144 57.1642 31.5803 56.5129 32.2316C55.8615 32.883 55.4956 33.7664 55.4956 34.6875C55.4956 35.6086 55.8615 36.492 56.5129 37.1434L71.4077 52.0313L31.2188 52.0313Z" fill="url(#paint0_linear_72_122)"/>
</g>
<rect x="2" y="109" width="107" height="107" rx="53.5" transform="rotate(-90 2 109)" stroke="#F4FAFF" stroke-width="4"/>
<defs>
<linearGradient id="paint0_linear_72_122" x1="6.61831e-07" y1="55.5" x2="111" y2="55.5" gradientUnits="userSpaceOnUse">
<stop stop-color="#0C0C0C"/>
<stop offset="1" stop-color="#131313"/>
</linearGradient>
<clipPath id="clip0_72_122">
</clipPath>
</defs>
</svg>
