<svg width="94" height="122" viewBox="0 0 94 122" fill="none" xmlns="http://www.w3.org/2000/svg">
<g clip-path="url(#clip0_63_125)">
<path d="M92.7206 65.1036L88.1976 61.61V60.39L92.6103 56.8964C93.4928 56.2309 93.7134 55.0109 93.1618 54.0682L88.4734 45.8609C88.2803 45.5188 87.9992 45.2353 87.6595 45.0401C87.3198 44.845 86.9341 44.7454 86.5429 44.7518C86.2671 44.7518 85.9913 44.8073 85.7155 44.9182L80.4755 47.0255C80.0342 46.7482 79.8688 46.6373 79.4275 46.4155L78.6001 40.8145C78.5359 40.2693 78.2767 39.7661 77.8708 39.3988C77.4648 39.0315 76.9399 38.8251 76.3938 38.8182H66.9618C65.8586 38.8182 64.921 39.65 64.7555 40.7036L63.9833 46.3045C63.8178 46.4155 63.5972 46.4709 63.4317 46.5818L62.9353 46.9145L57.6953 44.8073C57.2 44.602 56.6474 44.5844 56.1402 44.7577C55.6329 44.9311 55.2055 45.2837 54.9374 45.75L50.2489 53.9573C49.6973 54.9 49.918 56.12 50.8005 56.7855L55.2132 60.2791V61.5545L50.8005 65.0482C50.3789 65.369 50.0896 65.8348 49.9879 66.3564C49.8861 66.8781 49.9791 67.4192 50.2489 67.8764L54.9374 76.0836C55.3235 76.8045 56.0957 77.1927 56.8679 77.1927C57.1437 77.1927 57.4195 77.1373 57.6953 77.0264L62.9353 74.9745C63.3765 75.2518 63.5972 75.3627 64.0384 75.5845L64.8658 81.1855C65.0313 82.2945 65.969 83.0709 67.0721 83.0709H76.5041C77.6073 83.0709 78.545 82.2391 78.7105 81.1855L79.5378 75.5845C79.7033 75.4736 79.9239 75.4182 80.0894 75.3073L80.5858 74.9745L85.8258 77.0818C86.3211 77.2871 86.8737 77.3047 87.3809 77.1313C87.8882 76.958 88.3156 76.6054 88.5837 76.1391L93.2722 67.9318C93.542 67.4747 93.635 66.9336 93.5332 66.4119C93.4315 65.8902 93.1422 65.4245 92.7206 65.1036ZM71.7054 69.3182C67.1273 69.3182 63.4317 65.6027 63.4317 61C63.4317 56.3973 67.1273 52.6818 71.7054 52.6818C76.2835 52.6818 79.9791 56.3973 79.9791 61C79.9791 65.6027 76.2835 69.3182 71.7054 69.3182ZM66.1896 94.2727H11.0316V27.7273H66.1896V33.2727H77.2212V11.0909C77.2212 4.99091 72.257 0 66.1896 0H11.0316C4.96422 0 0 4.99091 0 11.0909V110.909C0 117.009 4.96422 122 11.0316 122H66.1896C72.257 122 77.2212 117.009 77.2212 110.909V88.7273H66.1896V94.2727ZM11.0316 11.0909H66.1896V16.6364H11.0316V11.0909ZM66.1896 110.909H11.0316V105.364H66.1896V110.909Z" fill="white"/>
</g>
<defs>
<clipPath id="clip0_63_125">
<rect width="93.7686" height="122" fill="white"/>
</clipPath>
</defs>
</svg>
