<svg width="122" height="122" viewBox="0 0 122 122" fill="none" xmlns="http://www.w3.org/2000/svg">
<path d="M18.2391 105.257C20.1953 105.257 21.7812 104.176 21.7812 102.842C21.7812 101.508 20.1953 100.426 18.2391 100.426C16.2829 100.426 14.697 101.508 14.697 102.842C14.697 104.176 16.2829 105.257 18.2391 105.257Z" fill="#F4FAFF"/>
<path d="M122 90.827L120.67 90.0462C120.569 89.9872 110.408 83.9584 107.883 76.6424L107.319 75.0219L106.278 76.3822C106.246 76.4249 104.802 78.2101 100.762 80.3045C97.7708 63.2794 87.596 42.9542 74.2248 34.2881C78.0475 34.5972 81.8823 34.28 85.583 32.9339C87.8115 32.1246 86.8498 28.4931 84.6009 29.3146C81.5672 30.4187 78.5273 30.7196 75.4936 30.5651C82.9417 23.7392 88.7896 13.2777 88.7896 5.62827C88.7896 3.79013 88.7896 0.368033 86.0649 0.368033C84.971 0.368033 84.0865 1.05123 82.8644 1.9947C80.9897 3.4404 78.1593 5.62827 74.0011 5.62827C72.4172 5.62827 69.5176 3.95687 67.1874 2.61487C64.3713 0.9943 62.5718 0 61.059 0C58.5539 0 54.8715 2.0252 51.6223 3.8125C50.3006 4.5384 48.493 5.53473 48.1188 5.6303C43.4096 5.6303 40.6748 3.4587 38.8611 2.02113C37.8037 1.17933 37.0372 0.569333 36.0144 0.569333C33.3345 0.569333 33.3345 3.78403 33.3345 7.50707C33.3345 14.6929 38.8082 24.1784 45.9757 30.5529C41.4597 30.8762 37.0067 32.2405 33.8774 35.2722C32.149 36.9436 34.768 39.5951 36.4902 37.9278C39.0908 35.4064 42.5007 34.3267 46.1485 34.1173C46.2522 34.4894 46.3783 34.8554 46.5328 35.2153C31.2503 46.1973 20.3943 72.2748 20.3943 89.8794C20.3943 91.6159 20.5285 93.1877 20.7359 94.6679C16.7953 92.9172 15.3578 91.3821 15.3293 91.3475L14.2801 90.1377L13.7636 91.6627C11.4802 98.3808 1.55347 104.208 1.45383 104.267L0 105.111L1.47823 105.91C1.99673 106.191 2.51117 106.437 3.02967 106.703L2.09433 107.352L2.58843 113.533L41.3295 122L56.0183 112.604C57.5006 112.612 59.0012 112.616 60.5283 112.616L77.6977 122L116.512 109.8V103.275L115.485 102.659C115.998 102.334 116.51 102.002 117.02 101.661L118.381 100.752L118.082 100.605L119.812 100.131L120.105 93.3483L119.105 92.6387C119.637 92.3194 120.168 91.9941 120.701 91.6566L122 90.827ZM37.0331 7.50707C37.0331 6.60427 37.0453 5.90073 37.0636 5.35377C37.3747 5.59777 37.7366 5.86413 38.123 6.13863C39.3084 8.97717 41.5512 13.0642 45.3535 15.6384C49.9732 18.7697 49.3592 15.1707 51.8236 11.8848C54.288 8.601 55.9553 6.8808 60.083 15.3273C61.8825 19.0096 64.8816 8.71893 67.7324 7.2163C68.4867 7.62703 69.2391 8.0093 69.9772 8.33463C75.089 16.6469 77.4578 14.0544 81.9982 7.14513C83.2467 6.41313 84.2715 5.62827 85.0869 4.99997C85.0909 5.18907 85.095 5.3985 85.095 5.63233C85.095 12.1593 79.7616 21.5208 73.2305 27.6269C72.9221 26.8432 72.4805 26.1189 71.9251 25.4858C69.2879 22.4988 65.1663 25.8111 63.2123 27.9848C59.7454 26.8705 54.0968 23.8022 50.4165 25.559C49.4999 25.9842 48.6581 26.5548 47.9236 27.2487C41.905 21.7628 37.0331 13.8429 37.0331 7.50707ZM69.9812 29.8209C69.0696 29.6276 68.1631 29.4106 67.2627 29.1702C68.3973 28.1922 69.4383 27.8506 69.8755 29.3044C69.9223 29.463 69.9507 29.644 69.9812 29.8209ZM54.5279 31.0836C53.8549 30.9555 53.1635 30.8396 52.4519 30.7481C51.9122 30.4098 51.384 30.0538 50.8679 29.6806C52.7264 28.4341 55.9309 29.097 58.9931 30.136C57.4823 30.2885 55.9919 30.6179 54.5279 31.0836ZM55.451 36.4516C54.3124 36.7362 53.072 36.6224 52.0005 36.1954C52.4356 35.9656 52.8748 35.7663 53.314 35.565C54.0257 35.9087 54.7373 36.1954 55.451 36.4516ZM17.8405 110.571C12.9907 109.166 8.28492 107.305 3.78607 105.014C6.5453 103.2 12.5558 98.8139 14.9999 93.5435C16.6754 94.8591 20.5428 97.2584 28.0742 99.1006C27.9461 99.308 27.7896 99.5296 27.6391 99.7472C21.2097 98.0636 17.5538 95.9347 17.4948 95.8981L16.6083 95.3694L16.1833 96.319C15.6241 97.5634 14.3126 97.7505 13.5827 97.7505C13.3793 97.7505 13.2431 97.7362 13.2248 97.7342L12.4989 97.6285L12.2346 98.3239C11.6937 99.7431 9.4733 101.598 8.65997 102.193L7.3017 103.19L8.85517 103.826C9.43263 104.062 9.5892 104.279 9.59733 104.336C9.61767 104.477 9.37163 104.847 9.10933 105.06L7.92593 106.014L9.3025 106.65C12.1227 107.952 15.3171 109.029 18.5115 109.918C18.2573 110.168 18.0377 110.382 17.8405 110.571ZM34.2373 102.994C37.0799 103.393 40.2295 103.645 43.6699 103.645H43.6719C44.3877 103.645 45.1136 103.633 45.8537 103.611C45.903 103.764 45.9735 103.91 46.0631 104.044C46.2441 104.318 46.4881 104.546 46.7972 104.723L41.6081 109.157C41.5092 109.153 41.4102 109.151 41.3112 109.151C38.9993 109.151 37.2751 110.001 36.4475 111.514C33.312 111.114 30.1911 110.608 27.0901 109.995C29.5829 107.777 31.968 105.441 34.2373 102.994ZM11.161 105.428C11.3643 105.044 11.4965 104.578 11.4253 104.07C11.3577 103.611 11.1378 103.189 10.8011 102.87C11.714 102.088 12.9727 100.88 13.664 99.6293C15.2358 99.6069 16.533 99.0111 17.3504 97.9579C18.727 98.6777 21.8278 100.132 26.4089 101.392C24.5362 103.741 22.0129 106.404 20.0507 108.385C16.9926 107.576 13.9121 106.6 11.161 105.428ZM40.138 113.987L39.7212 113.989C37.9705 113.989 32.1694 113.846 24.5057 112.25C24.7741 112.022 25.0527 111.789 25.3109 111.565C31.5289 112.864 36.5431 113.421 36.9192 113.464L37.6634 113.543L37.8932 112.822C38.3954 111.264 40.2478 111.034 41.3092 111.034C41.6 111.034 41.7931 111.053 41.8155 111.055L42.21 111.097L51.2237 103.395L48.8142 103.316C48.009 103.287 47.6695 103.106 47.5861 102.982L48.0965 101.646L46.6853 101.705C45.6565 101.75 44.652 101.772 43.6699 101.772H43.6679C40.8293 101.772 38.1962 101.585 35.7623 101.29L36.3275 100.624C41.2401 101.28 47.1225 101.685 54.2249 101.634C52.5291 104.013 48.2998 109.07 40.138 113.987ZM60.5201 105.152V108.863C59.3632 108.863 58.2367 108.859 57.1346 108.85L56.8032 104.674L54.0501 104.898C55.9045 102.706 56.6954 101.244 56.7666 101.112L57.5128 99.7004L55.937 99.7289C40.8537 100.005 31.0165 98.208 24.8067 96.2112C24.3532 94.3772 24.0909 92.3032 24.0909 89.8815C24.0909 73.3647 34.646 48.3994 48.6597 38.2816C51.1424 40.6829 54.9081 41.7342 58.4868 39.3979C59.2717 38.8855 59.9549 38.2145 60.5954 37.5008C60.7479 37.5048 60.9044 37.5394 61.059 37.5394C61.5714 37.5394 62.0919 37.4967 62.6104 37.4316C63.2672 37.6939 63.9097 37.9583 64.5055 38.2206C67.3582 39.4772 69.7942 38.6964 71.4574 36.964C84.2939 44.7313 94.5785 65.2781 97.2848 81.8864C91.4166 84.2329 82.108 86.5224 67.8218 86.925C70.64 85.3146 72.7547 82.6062 71.9942 79.0479C71.1951 75.2862 68.0516 74.2289 64.7962 74.056C64.7881 72.2891 64.7881 70.5262 64.8003 68.7592C65.7987 69.2004 66.7564 69.7088 67.6266 70.2517C69.1638 71.2175 70.5546 68.7145 69.0276 67.7486C67.7036 66.9162 66.2904 66.2349 64.8145 65.7173C64.8349 63.6718 64.845 61.6303 64.845 59.5889C64.8471 57.7182 62.0675 57.7182 62.0675 59.5889C62.0675 61.3843 62.0553 63.1777 62.039 64.9691C60.5596 64.7113 59.0489 64.6859 57.5616 64.8938C57.3198 63.5479 57.0268 62.2118 56.6832 60.8882C56.2237 59.0866 53.5397 59.8491 54.0053 61.6568C54.3469 62.9561 54.6255 64.2493 54.8553 65.5608C54.7373 65.6055 54.6092 65.6279 54.4933 65.6807C50.7276 67.1712 48.4299 70.9715 51.1851 74.5156C52.4681 76.1666 54.1456 76.8336 55.9817 77.0552C56.0814 79.5013 56.1444 81.9494 56.2156 84.3935C54.9854 83.5944 53.865 82.5696 52.8504 81.4858C51.5938 80.1601 49.6316 82.2077 50.8862 83.5314C52.5922 85.3471 54.3835 86.7196 56.3254 87.598C56.4128 89.6863 56.5368 91.7806 56.7402 93.8587C56.9191 95.7029 59.7007 95.7131 59.5197 93.8587C59.3484 92.0612 59.2216 90.2598 59.1395 88.4561C60.1968 88.6391 61.307 88.6859 62.4864 88.574C62.6185 90.4976 62.7731 92.4211 62.9927 94.3446C63.1187 95.4467 64.172 95.8798 64.9487 95.6561L64.7759 99.6496C63.5518 99.7594 62.3034 99.8611 61.002 99.9465L59.4526 100.048L60.2782 101.382C60.3615 101.516 61.2989 102.998 63.3912 105.156H60.5201V105.152ZM111.126 91.7684C108.57 92.9701 105.337 94.0722 102.043 95.0339C100.018 92.9416 97.4272 90.1499 95.4935 87.6733C99.8021 86.3679 102.214 85.0218 103.301 84.2959C104.162 85.0543 105.3 85.4488 106.648 85.4468C107.096 85.4468 107.492 85.4041 107.797 85.3553C108.773 86.62 110.347 88.0799 111.331 88.9522C110.865 89.4301 110.64 89.9587 110.658 90.5301C110.674 91.0181 110.87 91.4329 111.126 91.7684ZM96.5772 98.4499C96.992 98.8159 97.4211 99.1901 97.8582 99.5683C89.6151 101.754 83.4805 101.992 82.1446 102.014C73.6087 96.807 69.1842 91.2967 67.4782 88.816C74.6213 88.6371 80.5261 87.9905 85.4508 87.0999C85.6511 87.3458 85.8538 87.5898 86.0588 87.8319C82.1006 88.4483 78.1111 88.8441 74.1089 89.0173L72.468 89.0864L73.3708 90.4671C73.3688 90.4691 73.1858 90.8107 71.9739 91.0466L70.0036 91.4309L79.6904 99.2734L80.1418 99.1514C80.152 99.1494 81.006 98.9196 82.0389 98.9196C83.5293 98.9196 84.548 99.3731 85.0604 100.26L85.3858 100.821L86.0181 100.709C89.5599 100.063 93.0813 99.3099 96.5772 98.4499ZM67.9133 92.474L65.5994 92.3479C65.4916 91.193 65.3839 90.038 65.3025 88.8831C65.7092 89.5582 66.5429 90.827 67.9133 92.474ZM65.0504 85.0299C64.917 82.2928 64.8363 79.5534 64.8084 76.8132C65.1419 76.8254 65.4713 76.8559 65.7844 76.9007C69.3794 77.4456 70.3188 81.4431 67.5128 83.692C66.7808 84.2715 65.9369 84.6965 65.0504 85.0299ZM86.2764 98.759C85.3654 97.6346 83.9157 97.0449 82.0409 97.0449C81.2581 97.0449 80.5688 97.1506 80.1337 97.236L74.0438 92.3011C74.5501 92.0104 74.8917 91.6423 75.0788 91.1909C75.1249 91.0786 75.1603 90.9622 75.1845 90.8432C80.0117 90.5789 84.0783 90.097 87.5167 89.5073C89.184 91.3678 91.6342 93.9339 94.8835 96.9168C90.892 97.8664 87.5635 98.517 86.2764 98.759ZM62.0268 76.8864C62.0655 79.8327 62.1387 82.7872 62.2952 85.7314C62.0329 85.7721 61.7747 85.8229 61.5165 85.8494C60.6421 85.949 59.8125 85.8758 59.0236 85.6765C58.924 82.8299 58.8589 79.9771 58.7511 77.1284C59.8451 77.0776 60.9532 76.9698 62.0268 76.8864ZM58.6108 74.3143C58.4838 72.08 58.2735 69.8513 57.9805 67.6327C59.3282 67.4475 60.6987 67.5171 62.0207 67.8381C62.0062 69.9168 62.0028 71.9956 62.0106 74.0743C61.1179 74.1231 60.27 74.2085 59.5238 74.2756C59.22 74.2993 58.9155 74.3122 58.6108 74.3143ZM55.8211 73.9584C55.6483 73.9117 55.4775 73.8751 55.3006 73.8161C54.487 73.5404 53.7504 73.0756 53.1513 72.4599C51.4149 70.8393 53.7979 69.2492 55.3006 68.4949C55.5364 70.3045 55.6991 72.1305 55.8211 73.9584ZM78.263 113.539C69.4363 109.029 64.7007 104.017 62.8198 101.695C64.172 101.593 65.451 101.471 66.7177 101.343L81.191 110.737L112.931 102.018C96.563 111.884 80.3919 113.387 78.263 113.539ZM104.477 97.4963C104.216 97.236 103.905 96.927 103.537 96.5549C107.149 95.4609 110.642 94.1921 113.246 92.7973L114.83 91.9453L113.224 91.1279C112.864 90.9429 112.512 90.6033 112.506 90.4752C112.51 90.4264 112.653 90.1661 113.269 89.8123L114.444 89.1373L113.399 88.267C113.366 88.2406 110.107 85.5342 108.962 83.7916L108.584 83.2223L107.935 83.4114C107.929 83.4114 107.372 83.572 106.648 83.572C105.53 83.5741 104.692 83.2081 104.155 82.4883L103.562 81.7014L102.818 82.3419C102.779 82.3744 100.475 84.2634 94.2958 86.0486C94.0923 85.7555 93.8964 85.4572 93.7082 85.154C101.201 82.8827 105.03 80.1337 106.689 78.629C109.353 84.3915 115.695 89.0336 118.448 90.8534C114.025 93.5298 109.344 95.7553 104.477 97.4963Z" fill="#F4FAFF"/>
<path d="M86.1727 91.7379C84.1454 91.1869 81.8579 91.563 81.0568 92.5695C80.2618 93.5801 81.2662 94.853 83.2914 95.4081C85.3207 95.9591 87.6062 95.5809 88.4073 94.5724C89.2023 93.5618 88.2019 92.293 86.1727 91.7379Z" fill="#F4FAFF"/>
</svg>
