<svg width="96" height="122" viewBox="0 0 96 122" fill="none" xmlns="http://www.w3.org/2000/svg">
<path d="M48 0C35.2742 0.0149906 23.074 5.06941 14.0755 14.0545C5.07701 23.0396 0.015064 35.2217 5.10671e-05 47.9286C-0.0151906 58.3126 3.38178 68.4149 9.66986 76.6857C9.66986 76.6857 10.9789 78.4068 11.1928 78.6551L48 122L84.8247 78.6334C85.0167 78.4024 86.3301 76.6857 86.3301 76.6857L86.3345 76.6726C92.6195 68.4055 96.0149 58.3079 95.9999 47.9286C95.9849 35.2217 90.923 23.0396 81.9245 14.0545C72.926 5.06941 60.7258 0.0149906 48 0ZM48 65.3571C44.5478 65.3571 41.1732 64.335 38.3028 62.4199C35.4324 60.5048 33.1952 57.7829 31.8741 54.5982C30.553 51.4135 30.2074 47.9092 30.8809 44.5284C31.5543 41.1476 33.2167 38.0421 35.6578 35.6047C38.0988 33.1673 41.2089 31.5074 44.5948 30.8349C47.9806 30.1624 51.4902 30.5075 54.6796 31.8267C57.869 33.1458 60.595 35.3797 62.5129 38.2458C64.4308 41.1119 65.4545 44.4815 65.4545 47.9286C65.4488 52.5491 63.6079 56.9788 60.3358 60.2461C57.0637 63.5133 52.6275 65.3514 48 65.3571Z" fill="#F4FAFF"/>
</svg>
