<svg width="131" height="122" viewBox="0 0 131 122" fill="none" xmlns="http://www.w3.org/2000/svg">
<g clip-path="url(#clip0_72_92)">
<path d="M123.639 16.2666H110.356V24.3999H122.617V113.867H8.17547V24.3999H20.4371V16.2666H7.15367C6.19823 16.2825 5.2553 16.4855 4.37872 16.864C3.50215 17.2426 2.70911 17.7892 2.04491 18.4727C1.3807 19.1563 0.858332 19.9633 0.507643 20.8477C0.156954 21.7321 -0.0151879 22.6766 0.00105062 23.6273V114.639C-0.0151879 115.59 0.156954 116.534 0.507643 117.419C0.858332 118.303 1.3807 119.11 2.04491 119.794C2.70911 120.477 3.50215 121.024 4.37872 121.403C5.2553 121.781 6.19823 121.984 7.15367 122H123.639C124.595 121.984 125.537 121.781 126.414 121.403C127.291 121.024 128.084 120.477 128.748 119.794C129.412 119.11 129.934 118.303 130.285 117.419C130.636 116.534 130.808 115.59 130.792 114.639V23.6273C130.808 22.6766 130.636 21.7321 130.285 20.8477C129.934 19.9633 129.412 19.1563 128.748 18.4727C128.084 17.7892 127.291 17.2426 126.414 16.864C125.537 16.4855 124.595 16.2825 123.639 16.2666Z" fill="#F4FAFF"/>
<path d="M24.5243 48.7998H32.6987V56.9331H24.5243V48.7998Z" fill="#F4FAFF"/>
<path d="M49.0475 48.7998H57.2219V56.9331H49.0475V48.7998Z" fill="#F4FAFF"/>
<path d="M73.5708 48.7998H81.7452V56.9331H73.5708V48.7998Z" fill="#F4FAFF"/>
<path d="M98.094 48.7998H106.268V56.9331H98.094V48.7998Z" fill="#F4FAFF"/>
<path d="M24.5243 69.1333H32.6987V77.2666H24.5243V69.1333Z" fill="#F4FAFF"/>
<path d="M49.0475 69.1333H57.2219V77.2666H49.0475V69.1333Z" fill="#F4FAFF"/>
<path d="M73.5708 69.1333H81.7452V77.2666H73.5708V69.1333Z" fill="#F4FAFF"/>
<path d="M98.094 69.1333H106.268V77.2666H98.094V69.1333Z" fill="#F4FAFF"/>
<path d="M24.5243 89.4668H32.6987V97.6001H24.5243V89.4668Z" fill="#F4FAFF"/>
<path d="M49.0475 89.4668H57.2219V97.6001H49.0475V89.4668Z" fill="#F4FAFF"/>
<path d="M73.5708 89.4668H81.7452V97.6001H73.5708V89.4668Z" fill="#F4FAFF"/>
<path d="M98.094 89.4668H106.268V97.6001H98.094V89.4668Z" fill="#F4FAFF"/>
<path d="M32.6987 32.5333C33.7827 32.5333 34.8223 32.1049 35.5888 31.3422C36.3553 30.5796 36.7859 29.5452 36.7859 28.4667V4.06667C36.7859 2.98812 36.3553 1.95375 35.5888 1.1911C34.8223 0.428451 33.7827 0 32.6987 0C31.6147 0 30.5751 0.428451 29.8086 1.1911C29.0421 1.95375 28.6115 2.98812 28.6115 4.06667V28.4667C28.6115 29.5452 29.0421 30.5796 29.8086 31.3422C30.5751 32.1049 31.6147 32.5333 32.6987 32.5333Z" fill="#F4FAFF"/>
<path d="M98.094 32.5333C99.178 32.5333 100.218 32.1049 100.984 31.3422C101.751 30.5796 102.181 29.5452 102.181 28.4667V4.06667C102.181 2.98812 101.751 1.95375 100.984 1.1911C100.218 0.428451 99.178 0 98.094 0C97.0101 0 95.9705 0.428451 95.2039 1.1911C94.4374 1.95375 94.0068 2.98812 94.0068 4.06667V28.4667C94.0068 29.5452 94.4374 30.5796 95.2039 31.3422C95.9705 32.1049 97.0101 32.5333 98.094 32.5333Z" fill="#F4FAFF"/>
<path d="M44.9603 16.2666H85.8324V24.3999H44.9603V16.2666Z" fill="#F4FAFF"/>
</g>
<defs>
<clipPath id="clip0_72_92">
<rect width="130.793" height="122" fill="white"/>
</clipPath>
</defs>
</svg>
