<svg width="122" height="122" viewBox="0 0 122 122" fill="none" xmlns="http://www.w3.org/2000/svg">
<path d="M93.173 120.049C92.0008 120.045 90.8322 119.917 89.6873 119.665C67.8898 115.156 47.8086 104.584 31.7547 89.1653C16.0435 73.7128 5.14685 54.0384 0.383297 32.5225C-0.178387 29.841 -0.0405274 27.06 0.783611 24.4472C1.60775 21.8344 3.09043 19.4776 5.08901 17.6036L19.0319 4.18362C19.744 3.51014 20.5902 2.9944 21.5152 2.67006C22.4401 2.34573 23.4231 2.22009 24.3999 2.30134C25.4127 2.407 26.3901 2.73326 27.2633 3.25719C28.1365 3.78111 28.8843 4.48996 29.4542 5.33391L46.8827 31.0933C47.5363 32.0928 47.8518 33.2757 47.7828 34.468C47.7138 35.6602 47.2639 36.7988 46.4993 37.7162L37.7502 48.1733C41.2347 55.8853 46.1694 62.8554 52.2856 68.7042C58.3622 74.7651 65.5447 79.6047 73.4439 82.9608L84.2844 74.3511C85.1949 73.6315 86.3029 73.2061 87.461 73.1313C88.6191 73.0566 89.7725 73.3362 90.7679 73.9328L117.085 90.9431C117.988 91.4823 118.758 92.2189 119.336 93.0977C119.914 93.9765 120.285 94.9747 120.423 96.0175C120.56 97.0604 120.46 98.1208 120.129 99.1194C119.799 100.118 119.247 101.029 118.514 101.784L104.92 115.238C103.376 116.775 101.543 117.991 99.5268 118.817C97.5108 119.642 95.3515 120.061 93.173 120.049ZM23.8422 9.20305L9.8993 22.6231C8.77499 23.6707 7.94272 24.9929 7.48434 26.4597C7.02597 27.9265 6.95727 29.4874 7.28501 30.9888C11.7144 51.1785 21.8961 69.6534 36.5999 84.1808C51.7076 98.6867 70.6051 108.631 91.1164 112.868C92.669 113.193 94.2778 113.127 95.7987 112.677C97.3196 112.227 98.705 111.406 99.8307 110.289L113.425 96.8339L88.0142 80.4162L76.3719 89.6882C75.9262 90.041 75.401 90.2794 74.842 90.3826C74.2831 90.4859 73.7074 90.451 73.165 90.2808C63.4981 86.719 54.7376 81.0652 47.5102 73.7236C40.0345 66.7425 34.2318 58.1634 30.5347 48.6265C30.3783 48.0491 30.3731 47.4412 30.5196 46.8613C30.6662 46.2813 30.9594 45.7489 31.3713 45.3151L40.7827 34.0562L23.8422 9.20305Z" fill="#F4FAFF"/>
</svg>
